<svg id="visual" viewBox="0 0 3840 2160" width="3840" height="2160" xmlns="http://www.w3.org/2000/svg" xmlns:xlink="http://www.w3.org/1999/xlink" version="1.1"><rect x="0" y="0" width="3840" height="2160" fill="#0064ff"></rect><path d="M0 1313L549 1486L1097 1398L1646 1452L2194 1299L2743 1332L3291 1617L3840 1435L3840 2161L3291 2161L2743 2161L2194 2161L1646 2161L1097 2161L549 2161L0 2161Z" fill="#06003e"></path><path d="M0 1436L549 1446L1097 1714L1646 1499L2194 1657L2743 1547L3291 1496L3840 1549L3840 2161L3291 2161L2743 2161L2194 2161L1646 2161L1097 2161L549 2161L0 2161Z" fill="#010d6a"></path><path d="M0 1735L549 1622L1097 1700L1646 1752L2194 1753L2743 1582L3291 1796L3840 1613L3840 2161L3291 2161L2743 2161L2194 2161L1646 2161L1097 2161L549 2161L0 2161Z" fill="#001699"></path><path d="M0 1836L549 1761L1097 1828L1646 1953L2194 1792L2743 1907L3291 1810L3840 1851L3840 2161L3291 2161L2743 2161L2194 2161L1646 2161L1097 2161L549 2161L0 2161Z" fill="#001fcb"></path><path d="M0 1997L549 2023L1097 2013L1646 1891L2194 1921L2743 1972L3291 1905L3840 1974L3840 2161L3291 2161L2743 2161L2194 2161L1646 2161L1097 2161L549 2161L0 2161Z" fill="#0027ff"></path></svg>